<?xml version="1.0" standalone="no"?>
<!DOCTYPE svg PUBLIC "-//W3C//DTD SVG 20010904//EN"
 "http://www.w3.org/TR/2001/REC-SVG-20010904/DTD/svg10.dtd">
<svg version="1.0" xmlns="http://www.w3.org/2000/svg"
 width="600.000000pt" height="600.000000pt" viewBox="0 0 600.000000 600.000000"
 preserveAspectRatio="xMidYMid meet">
<metadata>
Created by potrace 1.14, written by Peter Selinger 2001-2017
</metadata>
<g transform="translate(0.000000,600.000000) scale(0.100000,-0.100000)"
fill="#000000" stroke="none">
<path d="M2953 5825 c-23 -13 -158 -91 -300 -173 -142 -82 -289 -166 -326
-188 -38 -21 -83 -47 -100 -58 -33 -19 -744 -428 -807 -464 -35 -20 -331 -190
-685 -394 -104 -61 -195 -114 -201 -119 -8 -6 -11 -418 -11 -1433 l0 -1424
155 -89 c85 -48 173 -99 196 -111 22 -13 62 -37 89 -53 26 -16 50 -29 52 -29
3 0 22 -11 43 -24 27 -18 1131 -653 1488 -857 23 -13 134 -77 247 -143 l206
-118 423 242 c233 134 451 259 484 279 34 20 77 45 95 55 19 11 133 76 254
146 121 70 337 194 480 277 143 82 368 212 501 288 l241 139 0 1424 0 1424
-37 23 c-20 13 -52 32 -71 42 -19 10 -45 26 -59 34 -14 9 -243 141 -510 294
-267 153 -537 308 -600 345 -63 37 -133 78 -155 90 -22 12 -101 57 -175 100
-74 43 -151 86 -170 97 -19 11 -181 104 -359 208 -178 103 -329 189 -335 191
-6 2 -30 -8 -53 -21z"/>
</g>
</svg>
