# Blender 4.3.2
# www.blender.org
mtllib cross.mtl
o cross
v -0.000000 0.176777 -0.125000
v -0.176777 0.000000 -0.125000
v 0.176777 0.000000 -0.125000
v -0.000000 -0.176777 -0.125000
v -0.000000 0.176777 0.125000
v -0.176777 0.000000 0.125000
v 0.176777 0.000000 0.125000
v -0.000000 -0.176777 0.125000
v 0.353553 0.530330 -0.125000
v 0.353553 0.530330 0.125000
v 0.530330 0.353553 0.125000
v 0.530330 0.353553 -0.125000
v 0.353553 -0.530330 -0.125000
v 0.530330 -0.353553 -0.125000
v 0.530330 -0.353553 0.125000
v 0.353553 -0.530330 0.125000
v -0.530330 -0.353553 0.125000
v -0.530330 -0.353553 -0.125000
v -0.353553 -0.530330 -0.125000
v -0.353553 -0.530330 0.125000
v -0.530330 0.353553 0.125000
v -0.353553 0.530330 0.125000
v -0.353553 0.530330 -0.125000
v -0.530330 0.353553 -0.125000
vn -0.0000 -0.0000 1.0000
vn -0.0000 -0.0000 -1.0000
vn 0.7071 0.7071 -0.0000
vn -0.7071 0.7071 -0.0000
vn 0.7071 -0.7071 -0.0000
vn -0.7071 -0.7071 -0.0000
vt 0.333333 0.250000
vt 0.250000 0.333333
vt 0.166667 0.250000
vt 0.250000 0.166667
vt 0.250000 0.833333
vt 0.166667 0.750000
vt 0.250000 0.666667
vt 0.333333 0.750000
vt 0.735702 0.235702
vt 0.735702 0.117851
vt 0.853553 0.117851
vt 0.853553 0.235702
vt 0.500000 0.235702
vt 0.500000 0.000000
vt 0.617851 0.000000
vt 0.617851 0.235702
vt 0.083333 0.500000
vt -0.000000 0.416667
vt 0.617851 0.235702
vt 0.735702 0.000000
vt 0.735702 0.235702
vt 0.000000 0.583333
vt 0.083333 0.500000
vt 0.853553 0.353553
vt 0.735702 0.353553
vt 0.853553 0.235702
vt 0.416667 0.500000
vt 0.500000 0.583333
vt 0.617851 0.471405
vt 0.617851 0.707107
vt 0.500000 0.707107
vt 0.500000 0.471405
vt 0.500000 0.416667
vt 0.416667 0.500000
vt 0.617851 0.942809
vt 0.500000 0.942809
vt 0.735702 0.471405
vt 0.735702 0.353553
vt 0.853553 0.471405
vt 0.500000 0.916667
vt 0.416667 1.000000
vt 0.735702 0.471404
vt 0.617851 0.471404
vt 0.416667 0.000000
vt 0.500000 0.083333
vt 0.853553 0.117851
vt 0.735702 0.117851
vt 0.735702 -0.000000
vt 0.853553 0.000000
vt 0.000000 0.083333
vt 0.083333 -0.000000
vt 0.617851 0.707107
vt 0.617851 0.471405
vt 0.735702 0.471405
vt 0.735702 0.707107
vt 0.083333 1.000000
vt -0.000000 0.916667
vt 0.617851 0.942809
vt 0.735702 0.942809
s 0
usemtl Material
f 8/1/1 7/2/1 5/3/1 6/4/1
f 2/5/2 1/6/2 3/7/2 4/8/2
f 9/9/3 10/10/3 11/11/3 12/12/3
f 5/13/4 10/14/4 9/15/4 1/16/4
f 7/2/1 11/17/1 10/18/1 5/3/1
f 3/19/5 12/15/5 11/20/5 7/21/5
f 1/6/2 9/22/2 12/23/2 3/7/2
f 13/24/5 14/25/5 15/9/5 16/26/5
f 3/7/2 14/27/2 13/28/2 4/8/2
f 7/29/3 15/30/3 14/31/3 3/32/3
f 8/1/1 16/33/1 15/34/1 7/2/1
f 4/30/6 13/35/6 16/36/6 8/31/6
f 17/37/6 18/38/6 19/24/6 20/39/6
f 2/16/4 18/29/4 17/32/4 6/13/4
f 4/8/2 19/40/2 18/41/2 2/5/2
f 8/21/5 20/42/5 19/43/5 4/19/5
f 6/4/1 17/44/1 20/45/1 8/1/1
f 21/46/4 22/47/4 23/48/4 24/49/4
f 5/3/1 22/50/1 21/51/1 6/4/1
f 1/52/3 23/53/3 22/54/3 5/55/3
f 2/5/2 24/56/2 23/57/2 1/6/2
f 6/58/6 21/52/6 24/55/6 2/59/6
